<?xml version="1.0" encoding="UTF-8"?>
<svg width="162px" height="21px" viewBox="0 0 162 21" version="1.1" xmlns="http://www.w3.org/2000/svg" xmlns:xlink="http://www.w3.org/1999/xlink">
    <!-- Generator: Sketch 46.2 (44496) - http://www.bohemiancoding.com/sketch -->
    <title>logo</title>
    <desc>Created with Sketch.</desc>
    <defs></defs>
    <g id="Symbols" stroke="none" stroke-width="1" fill="none" fill-rule="evenodd">
        <g id="logo" fill="#FEFEFE">
            <path d="M10.4577652,20.9607222 C8.9622,20.9607222 7.57385217,20.6900556 6.29272174,20.1502778 C5.0108087,19.6105 3.90341739,18.8716111 2.97211304,17.9351667 C2.03924348,16.9995 1.31063478,15.8942778 0.787069565,14.6202778 C0.262721739,13.3462778 0.000547826087,11.9859444 0.000547826087,10.5385 L0.000547826087,10.4801667 C0.000547826087,9.03272222 0.262721739,7.67705556 0.787069565,6.41238889 C1.31063478,5.14927778 2.03924348,4.03861111 2.97211304,3.0835 C3.90341739,2.12761111 5.0202,1.37472222 6.32167826,0.824833333 C7.62237391,0.274944444 9.06002609,0.000388888889 10.6330696,0.000388888889 C11.5839391,0.000388888889 12.4534174,0.0773888889 13.2407217,0.232166667 C14.0272435,0.386166667 14.7409826,0.5985 15.3811565,0.868388889 C16.022113,1.13905556 16.6145478,1.46727778 17.1584609,1.85305556 C17.7015913,2.23961111 18.2063739,2.6635 18.6728087,3.12627778 L15.8186348,6.39761111 C15.0219391,5.68438889 14.2111565,5.12438889 13.3855043,4.71916667 C12.5606348,4.31394444 11.6332435,4.11094444 10.604113,4.11094444 C9.74950435,4.11094444 8.95828696,4.27505556 8.22889565,4.60327778 C7.50185217,4.93227778 6.87498261,5.38494444 6.35063478,5.96438889 C5.82628696,6.54305556 5.41854783,7.2135 5.12663478,7.9765 C4.83550435,8.73872222 4.68993913,9.55383333 4.68993913,10.4226111 L4.68993913,10.4801667 C4.68993913,11.3489444 4.83550435,12.1695 5.12663478,12.9410556 C5.41854783,13.7133889 5.8208087,14.3892778 6.33576522,14.9679444 C6.85072174,15.5466111 7.47211304,16.0055 8.19993913,16.3430556 C8.92854783,16.6806111 9.72993913,16.8501667 10.604113,16.8501667 C11.7694174,16.8501667 12.7547217,16.6370556 13.5608087,16.2131667 C14.366113,15.7885 15.1675043,15.2090556 15.9634174,14.4756111 L18.8191565,17.3417222 C18.2948087,17.9017222 17.750113,18.4033889 17.1874174,18.8475 C16.6239391,19.2916111 16.0080261,19.6727222 15.3373304,19.9908333 C14.6674174,20.3089444 13.934113,20.5516111 13.1382,20.7149444 C12.3415043,20.8790556 11.4485478,20.9607222 10.4577652,20.9607222 Z M43.6674522,0.347355556 L47.8035391,0.347355556 L57.3591913,12.8252444 L57.3591913,0.347355556 L61.7864087,0.347355556 L61.7864087,20.6139111 L57.9704087,20.6139111 L48.0954522,7.73002222 L48.0954522,20.6139111 L43.6674522,20.6139111 L43.6674522,0.347355556 Z M106.649061,0.347355556 L111.134191,0.347355556 L111.134191,16.5896889 L121.301843,16.5896889 L121.301843,20.6139111 L106.649061,20.6139111 L106.649061,0.347355556 Z M131.380748,20.9030111 C129.82727,20.9030111 128.301965,20.6370111 126.807183,20.1073444 C125.311617,19.5761222 123.952226,18.7602333 122.728226,17.6604556 L125.379704,14.5042333 C126.311791,15.2571222 127.268139,15.8560111 128.24953,16.2993444 C129.229357,16.7434556 130.303096,16.9659 131.467617,16.9659 C132.400487,16.9659 133.1244,16.7971222 133.638574,16.4587889 C134.152748,16.1220111 134.410226,15.6530111 134.410226,15.0541222 L134.410226,14.9965667 C134.410226,14.7072333 134.357009,14.4513444 134.249791,14.2296778 C134.141791,14.0080111 133.938313,13.8003444 133.636226,13.6066778 C133.334139,13.4145667 132.915443,13.2216778 132.380139,13.0280111 C131.844835,12.8351222 131.148313,12.6329 130.292139,12.4205667 C129.259878,12.1693444 128.325443,11.8893444 127.48727,11.5805667 C126.649878,11.2717889 125.940052,10.8906778 125.355443,10.4372333 C124.771617,9.98378889 124.31927,9.41912222 123.996835,8.74323333 C123.675965,8.06812222 123.51553,7.22812222 123.51553,6.22478889 L123.51553,6.16645556 C123.51553,5.24012222 123.688487,4.40556667 124.035965,3.66201111 C124.383443,2.92001111 124.871009,2.27756667 125.497096,1.73701111 C126.124748,1.19645556 126.873704,0.7819 127.744748,0.492566667 C128.615009,0.202455556 129.574487,0.0577888889 130.623183,0.0577888889 C132.117965,0.0577888889 133.493009,0.279455556 134.745965,0.724344444 C135.998139,1.16767778 137.148574,1.80467778 138.19727,2.63456667 L135.866661,5.99301111 C134.953357,5.37545556 134.061183,4.88778889 133.187009,4.53078889 C132.312835,4.17378889 131.438661,3.99567778 130.56527,3.99567778 C129.691096,3.99567778 129.036052,4.16445556 128.598574,4.50201111 C128.161878,4.84034444 127.942748,5.25956667 127.942748,5.76123333 L127.942748,5.81878889 C127.942748,6.14701111 128.006139,6.43245556 128.133704,6.67278889 C128.259704,6.91545556 128.488226,7.13167778 128.820052,7.32456667 C129.150313,7.51745556 129.603443,7.70101111 130.177878,7.87445556 C130.752313,8.04867778 131.477009,8.2509 132.354313,8.48267778 C133.386574,8.75334444 134.305357,9.05745556 135.114574,9.39501111 C135.922226,9.73256667 136.603878,10.1377889 137.158748,10.6106778 C137.713617,11.0835667 138.132313,11.6389 138.414052,12.2751222 C138.697357,12.9129 138.838226,13.6751222 138.838226,14.5625667 L138.838226,14.6201222 C138.838226,15.6242333 138.655096,16.5163444 138.288052,17.2980111 C137.921009,18.0796778 137.410748,18.7369 136.754139,19.2665667 C136.098313,19.7977889 135.314922,20.2037889 134.40553,20.4830111 C133.496139,20.7622333 132.487357,20.9030111 131.380748,20.9030111 Z M92.1409826,16.6472444 L103.211765,16.6472444 L103.211765,20.6139111 L87.7137652,20.6139111 L87.7137652,0.347355556 L103.065417,0.347355556 L103.065417,4.31402222 L92.1409826,4.31402222 L92.1409826,8.42535556 L92.1425478,8.42535556 L92.1425478,12.3904667 L92.1409826,12.3904667 L92.1409826,16.6472444 Z M96.1904348,12.3912444 L96.1904348,8.42535556 L101.754783,8.42535556 L101.754783,12.3912444 L96.1904348,12.3912444 Z M79.9547478,12.3907778 L84.718487,12.3907778 C84.5877913,13.1141111 84.384313,13.8094444 84.1010087,14.476 C83.5766609,15.7118889 82.8339652,16.7821111 81.8721391,17.689 C80.9118783,18.5966667 79.7653565,19.3098889 78.4357043,19.831 C77.104487,20.3528889 75.6433565,20.6134444 74.0507478,20.6134444 L66.0978783,20.6134444 L66.0978783,0.347666667 L74.0507478,0.347666667 C75.6433565,0.347666667 77.104487,0.603555556 78.4357043,1.11455556 C79.7653565,1.62633333 80.9118783,2.33566667 81.8721391,3.24255556 C82.8339652,4.14944444 83.5766609,5.21577778 84.1010087,6.44233333 C84.3725739,7.07544444 84.5713565,7.73733333 84.7028348,8.42411111 L79.8897913,8.42411111 C79.8451826,8.288 79.7990087,8.15266667 79.7457913,8.01966667 C79.4452696,7.26677778 79.0273565,6.62044444 78.4936174,6.07988889 C77.9590957,5.53933333 77.3134435,5.11933333 76.5558783,4.82066667 C75.798313,4.52122222 74.9632696,4.37111111 74.0507478,4.37111111 L70.5837913,4.37111111 L70.5837913,16.5892222 L74.0507478,16.5892222 C74.9632696,16.5892222 75.798313,16.4445556 76.5558783,16.1552222 C77.3134435,15.8658889 77.9590957,15.4505556 78.4936174,14.91 C79.0273565,14.3694444 79.4452696,13.7332222 79.7457913,12.999 C79.8264,12.803 79.8960522,12.6 79.9547478,12.3907778 Z M32.9470435,0.2023 L41.6864348,20.6135222 L36.9962609,20.6135222 L35.1313043,16.0689667 L33.5293043,12.1303 L30.8206957,5.55885556 L28.1113043,12.1341889 L26.5077391,16.0674111 L24.6451304,20.6135222 L20.0715652,20.6135222 L28.8109565,0.2023 L32.9470435,0.2023 Z M152.704565,0.2023 L161.443957,20.6135222 L156.753783,20.6135222 L154.888826,16.0689667 L153.287609,12.1303 L150.578217,5.55885556 L147.868826,12.1341889 L146.265261,16.0674111 L144.402652,20.6135222 L139.829087,20.6135222 L148.568478,0.2023 L152.704565,0.2023 Z" id="Combined-Shape"></path>
        </g>
    </g>
</svg>